/* XPM */
static char *Alarmas[] = {
/* width height ncolors chars_per_pixel */
"16 16 4 1",
/* colors */
"  c black",
". c #C0C0C0",
"X c white",
"o c None",
/* pixels */
"XXXXXXX  XXXXXXX",
"XXXXXX    XXXXXX",
"XXXXX  ..  XXXXX",
"XXXX  ....  XXXX",
"XXXX  ....  XXXX",
"XXXX  ....  XXXX",
"XXXX  ....  XXXX",
"XXXX  ....  XXXX",
"XXX  ......  XXX",
"XXX  ......  XXX",
"XX  ........  XX",
"XX .......... XX",
"X              X",
"                ",
"XXXXXX    XXXXXX",
"XXXXXXX  XXXXXXX"
};
