/* XPM */
static char *Contadores[] = {
/* width height ncolors chars_per_pixel */
"16 16 3 1",
/* colors */
"  c black",
". c white",
"X c None",
/* pixels */
"................",
"................",
"................",
"................",
"................",
"                ",
" .............. ",
" .. .. ... .. . ",
" .. . . . ... . ",
" .. . . .   . . ",
" .. .. ... .. . ",
" .............. ",
"                ",
"................",
"................",
"................"
};
