/* XPM */
static char *DSP[] = {
/* width height ncolors chars_per_pixel */
"16 16 4 1",
/* colors */
"  c black",
". c #C0C0C0",
"X c white",
"o c None",
/* pixels */
"XXXXXXXXXXXXXXXX",
"XXX X X X X X XX",
"XXX X X X X X XX",
"XX             X",
"XX             X",
"XX             X",
"XX             X",
"XX .           X",
"XX ..          X",
"XX .           X",
"XX             X",
"XX             X",
"XX .           X",
"XX             X",
"XXX X X X X X XX",
"XXX X X X X X XX"
};
