/* XPM */
static char *EntradaFV[] = {
/* width height ncolors chars_per_pixel */
"16 16 5 1",
/* colors */
"  c black",
". c #C0C0C0",
"X c #808080",
"o c white",
"O c None",
/* pixels */
"o              o",
" XXX.XXXXXX.XXX ",
" XX...XXXX...XX ",
" XX...XXXX...XX ",
" XX...XXXX...XX ",
" XX...XXXX...XX ",
" XX...XXXX...XX ",
" XX...XXXX...XX ",
" XX...XXXX...XX ",
" XX...XXXX...XX ",
" XX...XXXX...XX ",
" XX...XXXX...XX ",
" XX...XXXX...XX ",
" XX...XXXX...XX ",
" XXX.XXXXXX.XXX ",
"o              o"
};
