/* XPM */
static char * grayball_green_xpm[] = {
"14 14 31 1",
" 	c None",
".	c #B7D9B7",
"+	c #A3CBA3",
"@	c #90BC90",
"#	c #AED4AE",
"$	c #8CB88C",
"%	c #93BF93",
"&	c #89B789",
"*	c #8AB88A",
"=	c #99C399",
"-	c #A6CEA6",
";	c #97C197",
">	c #8FBB8F",
",	c #81AF81",
"'	c #CDE7CD",
")	c #D9EDD9",
"!	c #87B587",
"~	c #80AE80",
"{	c #83B183",
"]	c #9FC99F",
"^	c #7EAC7E",
"/	c #77A577",
"(	c #8EBA8E",
"_	c #85B385",
":	c #78A678",
"<	c #84B284",
"[	c #74A274",
"}	c #7AAA7A",
"|	c #9CC69C",
"1	c #B0D4B0",
"2	c #78A878",
"              ",
"              ",
"    .+@@+.    ",
"   #$%%%@&#   ",
"  .*%=-;>&,.  ",
"  +%;')=$!~{  ",
"  @%;-]>!,^/  ",
"  @(>(*_,^:/  ",
"  +!!!<,^/[~  ",
"  .~,~^}:[[|  ",
"   122/[[[@   ",
"    .~//~|    ",
"              ",
"              "};
