/* XPM */
static char * greenbell_xpm[] = {
"20 20 5 1",
" 	c None",
".	c #040204",
"+	c #04CE04",
"@	c #FCFEFC",
"#	c #FFFFFF",
"         .          ",
"         .          ",
"       .....        ",
"      .+++++.       ",
"     .++@++++.      ",
"    .+++@+++++.     ",
"    .+++@+++++.     ",
"    .++@@+++++.     ",
"    .++@@+++++.     ",
"    .++@@+++++.     ",
"    .+@@++++++.     ",
"    .+@@++++++.     ",
"   .++@@+++++++.    ",
"  .++@@+++++++++.   ",
" .+++++++++++++++.  ",
" .................  ",
"       .###.        ",
"        ...         ",
"         .          ",
"         .          "};
