/* XPM */
static char * language_xpm[] = {
"24 24 454 2",
"  	c None",
". 	c #F8C4C3",
"+ 	c #F79997",
"@ 	c #F98C8A",
"# 	c #F78888",
"$ 	c #ED7F7E",
"% 	c #E27B79",
"& 	c #DF8685",
"* 	c #E39B99",
"= 	c #ECB9B8",
"- 	c #F4D1D0",
"; 	c #F8CECE",
"> 	c #EF9291",
", 	c #DF302F",
"' 	c #D70000",
") 	c #DE2D1C",
"! 	c #FAE3E1",
"~ 	c #D70301",
"{ 	c #E11412",
"] 	c #EE413F",
"^ 	c #F55A58",
"/ 	c #F76564",
"( 	c #EF5C5C",
"_ 	c #DC3E3E",
": 	c #C81C1B",
"< 	c #BA0200",
"[ 	c #B80000",
"} 	c #BF0B08",
"| 	c #CD211F",
"1 	c #DF3E3C",
"2 	c #E6413E",
"3 	c #E01E1C",
"4 	c #D80000",
"5 	c #D40000",
"6 	c #EA777E",
"7 	c #D30000",
"8 	c #DB110F",
"9 	c #E93736",
"0 	c #F14951",
"a 	c #F85866",
"b 	c #FA6B6C",
"c 	c #EC6359",
"d 	c #D7373A",
"e 	c #C00B1E",
"f 	c #B7000E",
"g 	c #BA0513",
"h 	c #C51924",
"i 	c #D63640",
"j 	c #E54B54",
"k 	c #E53943",
"l 	c #DA0210",
"m 	c #D50000",
"n 	c #E4530D",
"o 	c #ECAA00",
"p 	c #D60904",
"q 	c #DF141E",
"r 	c #F79D48",
"s 	c #E9D33F",
"t 	c #D09C2A",
"u 	c #EA8614",
"v 	c #F1D61D",
"w 	c #FBD20D",
"x 	c #ECAC03",
"y 	c #E49304",
"z 	c #E08510",
"A 	c #E38525",
"B 	c #ED953E",
"C 	c #F4AD4C",
"D 	c #FBD34F",
"E 	c #FFFF52",
"F 	c #F9E635",
"G 	c #F0BD08",
"H 	c #F0BD28",
"I 	c #ED958A",
"J 	c #D10000",
"K 	c #DA2307",
"L 	c #F9E639",
"M 	c #FFF847",
"N 	c #EC9529",
"O 	c #CB650C",
"P 	c #D18045",
"Q 	c #DDC868",
"R 	c #CC9F0F",
"S 	c #F6C205",
"T 	c #EEB600",
"U 	c #F1BC05",
"V 	c #F3C812",
"W 	c #F6D625",
"X 	c #FBE93F",
"Y 	c #FFF553",
"Z 	c #FFF154",
"` 	c #FBE342",
" .	c #F5CD25",
"..	c #EDAD00",
"+.	c #F9E4AA",
"@.	c #D61B00",
"#.	c #F2E023",
"$.	c #F7D933",
"%.	c #E4BB34",
"&.	c #D69D20",
"*.	c #D3350E",
"=.	c #D85E60",
"-.	c #7667C6",
";.	c #DFB97F",
">.	c #E49626",
",.	c #F0BA00",
"'.	c #EDB201",
").	c #EFB90A",
"!.	c #F2C51A",
"~.	c #F7D630",
"{.	c #FCE849",
"].	c #FFF255",
"^.	c #FDEC4E",
"/.	c #F8DB37",
"(.	c #F1C113",
"_.	c #ECAB00",
":.	c #EED963",
"<.	c #EBBA09",
"[.	c #F3CD29",
"}.	c #F2D62D",
"|.	c #C3B075",
"1.	c #E55C0D",
"2.	c #8A311C",
"3.	c #6E2C46",
"4.	c #CC5021",
"5.	c #D48E63",
"6.	c #F9A902",
"7.	c #EEB400",
"8.	c #EEB404",
"9.	c #F1BE11",
"0.	c #F4CC23",
"a.	c #F9DE3B",
"b.	c #FEEE50",
"c.	c #FFF155",
"d.	c #FCE546",
"e.	c #F6D12A",
"f.	c #F3CC4C",
"g.	c #E4AB00",
"h.	c #EEC41E",
"i.	c #F7DA2B",
"j.	c #E47F61",
"k.	c #E4991D",
"l.	c #FF7400",
"m.	c #ED6A00",
"n.	c #BA4218",
"o.	c #C97327",
"p.	c #938432",
"q.	c #F7BA02",
"r.	c #EDB200",
"s.	c #EFB809",
"t.	c #F2C418",
"u.	c #F6D32C",
"v.	c #FBE645",
"w.	c #F9DF3C",
"x.	c #F5D71D",
"y.	c #E88F00",
"z.	c #F9D8DB",
"A.	c #DEBA45",
"B.	c #EBB909",
"C.	c #F2D026",
"D.	c #F3A42A",
"E.	c #C0CA80",
"F.	c #F5A318",
"G.	c #C09734",
"H.	c #AC994B",
"I.	c #F7DE2B",
"J.	c #988344",
"K.	c #E5BF12",
"L.	c #F5C600",
"M.	c #F3C401",
"N.	c #F4CB0D",
"O.	c #F6D51F",
"P.	c #FBE233",
"Q.	c #FFF64D",
"R.	c #FFFF59",
"S.	c #FFFE4E",
"T.	c #E86F16",
"U.	c #DD2019",
"V.	c #F3B500",
"W.	c #FECC10",
"X.	c #FFEF24",
"Y.	c #82613B",
"Z.	c #F58D36",
"`.	c #FD7A4D",
" +	c #FF6D64",
".+	c #F7596B",
"++	c #EF4A52",
"@+	c #CF2134",
"#+	c #BF0E15",
"$+	c #C31C08",
"%+	c #D23C0B",
"&+	c #DB611A",
"*+	c #DD984B",
"=+	c #F59247",
"-+	c #EB623B",
";+	c #D60000",
">+	c #D90000",
",+	c #BCC9FA",
"'+	c #6C655E",
")+	c #5A5A67",
"!+	c #5A6064",
"~+	c #690037",
"{+	c #B45170",
"]+	c #F56568",
"^+	c #EE6164",
"/+	c #F67C7E",
"(+	c #E3575D",
"_+	c #F74A3D",
":+	c #D9261F",
"<+	c #B00A16",
"[+	c #7F1F4D",
"}+	c #D33A40",
"|+	c #DFC5CB",
"1+	c #D24556",
"2+	c #EA4145",
"3+	c #DE191A",
"4+	c #D20000",
"5+	c #E8B2AB",
"6+	c #A2B0DB",
"7+	c #000C96",
"8+	c #00019B",
"9+	c #000EAF",
"0+	c #000EA6",
"a+	c #000C93",
"b+	c #001182",
"c+	c #012A89",
"d+	c #FFF9EC",
"e+	c #C22621",
"f+	c #B2E2FF",
"g+	c #000898",
"h+	c #0026B3",
"i+	c #0023BA",
"j+	c #537CD2",
"k+	c #E20900",
"l+	c #C0DEEE",
"m+	c #120B61",
"n+	c #FF4C40",
"o+	c #DF211F",
"p+	c #DD4742",
"q+	c #D2B9B4",
"r+	c #E3D9CB",
"s+	c #E0F6E7",
"t+	c #C4DEE3",
"u+	c #AAC5E7",
"v+	c #7791D2",
"w+	c #193297",
"x+	c #000062",
"y+	c #B4D5EF",
"z+	c #F1312D",
"A+	c #C80000",
"B+	c #FFDDCE",
"C+	c #0D2E9B",
"D+	c #011F9B",
"E+	c #0024B3",
"F+	c #D25F5E",
"G+	c #EC8479",
"H+	c #526EAF",
"I+	c #000068",
"J+	c #9A98B8",
"K+	c #D02820",
"L+	c #EC140B",
"M+	c #FD0000",
"N+	c #FF0901",
"O+	c #FD4641",
"P+	c #FFA9A1",
"Q+	c #FFF7EA",
"R+	c #D0BEC8",
"S+	c #728ABF",
"T+	c #FFC0BB",
"U+	c #DA0000",
"V+	c #D7413B",
"W+	c #A0C0E9",
"X+	c #00008A",
"Y+	c #8D8DBD",
"Z+	c #C90000",
"`+	c #E8F6F6",
" @	c #000080",
".@	c #041F7F",
"+@	c #D2E0E9",
"@@	c #30529C",
"#@	c #3860AD",
"$@	c #3C6CBF",
"%@	c #7287C0",
"&@	c #DCA5A1",
"*@	c #E48D8D",
"=@	c #F3B9B9",
"-@	c #FFFFFF",
";@	c #F6FFFF",
">@	c #E71111",
",@	c #CC0000",
"'@	c #FFF3EC",
")@	c #496CBF",
"!@	c #D00E00",
"~@	c #E5BBB5",
"{@	c #6A8CD6",
"]@	c #86A4D9",
"^@	c #FEFCF0",
"/@	c #B2312E",
"(@	c #C5787A",
"_@	c #6572AB",
":@	c #00006A",
"<@	c #6783BD",
"[@	c #DCD2C9",
"}@	c #DF5F5F",
"|@	c #F42121",
"1@	c #FF0808",
"2@	c #FD0202",
"3@	c #FA1818",
"4@	c #F44040",
"5@	c #EC2E2E",
"6@	c #DD0000",
"7@	c #D64847",
"8@	c #FFE9E0",
"9@	c #FBF6F6",
"0@	c #E4D2D2",
"a@	c #E3ADA6",
"b@	c #DE5D57",
"c@	c #B01717",
"d@	c #990000",
"e@	c #F1E1E2",
"f@	c #E9EBF4",
"g@	c #7991B5",
"h@	c #D58B80",
"i@	c #E90000",
"j@	c #F80000",
"k@	c #FF0000",
"l@	c #F60000",
"m@	c #EF0000",
"n@	c #E70000",
"o@	c #D80202",
"p@	c #C00000",
"q@	c #B50000",
"r@	c #B70101",
"s@	c #BA0606",
"t@	c #C20A0A",
"u@	c #CF0808",
"v@	c #CF7F78",
"w@	c #DAE2E8",
"x@	c #C48D8B",
"y@	c #A20202",
"z@	c #BF0C0C",
"A@	c #DE0000",
"B@	c #ED504A",
"C@	c #EE8A7F",
"D@	c #EC9D9B",
"E@	c #F8A9A9",
"F@	c #FDA9A9",
"G@	c #F97A7A",
"H@	c #EE2625",
"I@	c #E20101",
"J@	c #D10F0F",
"K@	c #BA0000",
"L@	c #B30000",
"M@	c #B40000",
"N@	c #C22727",
"O@	c #D77A7A",
"P@	c #F0F0EC",
"Q@	c #8CA8D2",
"R@	c #000061",
"S@	c #7989BC",
"T@	c #E5D8D8",
"U@	c #9A0000",
"V@	c #BB423F",
"W@	c #E2EADF",
"X@	c #7A9ACC",
"Y@	c #1C44B4",
"Z@	c #C8E7F7",
"`@	c #FBE0DE",
" #	c #FF110E",
".#	c #FFBEB9",
"+#	c #F8FFFF",
"@#	c #EB0000",
"##	c #D50707",
"$#	c #DCBDBD",
"%#	c #CF7775",
"&#	c #C0828E",
"*#	c #90769C",
"=#	c #9287A8",
"-#	c #8D7F9F",
";#	c #B5605E",
">#	c #C7DADE",
",#	c #001B8B",
"'#	c #00008E",
")#	c #9BB0CD",
"!#	c #EBB8B1",
"~#	c #E8AAB4",
"{#	c #001A92",
"]#	c #A0C0E1",
"^#	c #FD4944",
"/#	c #DF0000",
"(#	c #F7A8A2",
"_#	c #748EC8",
":#	c #B7C0E0",
"<#	c #F9C2B5",
"[#	c #E0776C",
"}#	c #DF5045",
"|#	c #E53B32",
"1#	c #D23630",
"2#	c #CE9C9F",
"3#	c #ECF4F1",
"4#	c #000067",
"5#	c #000B7A",
"6#	c #475DA8",
"7#	c #E3E0D3",
"8#	c #D2ABB9",
"9#	c #001FAE",
"0#	c #001792",
"a#	c #173694",
"b#	c #FFE6D8",
"c#	c #EC0000",
"d#	c #E31813",
"e#	c #B1D5F5",
"f#	c #000075",
"g#	c #00098C",
"h#	c #2747B4",
"i#	c #6380CF",
"j#	c #8FAADE",
"k#	c #9DB6DB",
"l#	c #BBCDDC",
"m#	c #03176F",
"n#	c #00006D",
"o#	c #D3EDE8",
"p#	c #F61B18",
"q#	c #E9706C",
"r#	c #001FB2",
"s#	c #0010A2",
"t#	c #000B96",
"u#	c #00006F",
"v#	c #B5D9F1",
"w#	c #FB1411",
"x#	c #E00000",
"y#	c #FFC9BB",
"z#	c #001D89",
"A#	c #000A85",
"B#	c #000C90",
"C#	c #00079A",
"D#	c #00089A",
"E#	c #7180BF",
"F#	c #989FC0",
"G#	c #334A8E",
"H#	c #E2BBB3",
"I#	c #FB0700",
"J#	c #3066BB",
"K#	c #8997CE",
"L#	c #EAEBEF",
"M#	c #F2E4E5",
"N#	c #F1DEDE",
"O#	c #E0E5F2",
"P#	c #9BA3C4",
"Q#	c #B5BDDB",
"R#	c #D2D6E4",
"S#	c #A1B5C4",
"T#	c #DA2F2D",
"U#	c #CC9EA1",
"    . + @ # $ % & * = -     ; > , ' )           ",
"! ~ { ] ^ / ( _ : < [ } | 1 2 3 ' 4 5 6         ",
"7 5 8 9 0 a b c d e f g h i j k l m n o         ",
"p m m q r s t u v w x y z A B C D E F G H       ",
"I J K L M N O P Q R S T U V W X Y Z `  ...+.    ",
"  @.#.$.%.&.*.=.-.;.>.,.'.).!.~.{.].^./.(._.    ",
"  :.<.[.}.|.1.2.3.4.5.6.7.8.9.0.a.b.c.d.e.7.f.  ",
"    g.h.i.j.k.l.m.n.o.p.q.r.s.t.u.v.Z b.w.x.y.z.",
"    A.B.C.D.E.F.G.H.I.J.K.L.M.N.O.P.Q.R.S.T.m U.",
"      V.W.X.Y.Z.`. +.+++@+#+$+%+&+*+=+-+;+;+>+m ",
"    ,+'+)+!+~+{+]+^+/+(+_+:+<+[+}+|+1+2+3+' 4+5+",
"6+7+8+9+0+a+b+c+d+5 e+f+g+h+i+j+k+l+m+n+o+p+    ",
"q+r+s+t+u+v+w+x+y+z+A+B+C+D+E+F+G+H+I+J+        ",
"K+L+M+N+O+P+Q+R+S+T+U+V+W+X+Y+Z+`+ @.@+@        ",
"@@#@$@%@&@*@=@-@-@;@>@,@'@)@!@~@{@]@^@/@(@      ",
"_@:@<@[@}@|@1@2@3@4@5@6@7@8@9@0@a@b@,@c@d@e@    ",
"f@g@h@7 i@j@k@k@M+l@m@n@o@p@q@r@s@t@u@p@v@w@    ",
"  x@y@z@A@B@C@D@E@F@G@H@I@J@K@L@M@N@O@P@Q@R@S@  ",
"  T@U@V@W@X@Y@Z@`@ #.#+#@###-@-@-@$#%#&#*#=#-#  ",
"    ;#>#,#'#)#!#k@~#{#]#^#/#(#_#:#-@<#[#}#|#1#2#",
"    3#4#5#6#7#k@8#9#0#a#b#c#d#e#f#g#h#i#j#k#l#  ",
"      m#n#o#p#q#r#s#t#u#v#w#x#y#z#A#B#C#D#E#    ",
"      F#G#H#I#J#K#L#        M#N#O#P#Q#R#        ",
"        S#T#U#                                  "};
