/* XPM */
static char * estado_xpm[] = {
"20 20 4 1",
" 	c None",
".	c #8C8C8C",
"+	c #000000",
"@	c #FFFFFF",
"....................",
"....................",
"....................",
".......+++++........",
".....+++@+@+++@.....",
"....++@@@+@@@++@....",
"...++@@++@@@+@++@...",
"...+@+@++@@@@+@+@...",
"..++@@@++@@@@@@++@..",
"..+@+@@@++@@@@+@+@..",
".++@@@@@++@@@@@@++@.",
".+@+@@@@@++@@@@+@+@.",
".+@@@@@@@++@@@@@@+@.",
".+@@@@@@@++@@@@@@+@.",
".+@@@@@@+@@+@@@@@+@.",
".+++++++++++++++++@.",
"..@@@@@@@@@@@@@@@@@.",
"....................",
"....................",
"...................."};
