/* XPM */
static char * openedswitch_xpm[] = {
"26 26 4 1",
" 	c None",
".	c #000000",
"+	c #CFCFCF",
"@	c #FFFFFF",
"..........................",
".++++++++++++++++++++++++.",
".+@@@@@@@@@@@@@@@@@@@@@@+.",
".+@@@@@@@@@@@@@@@@@@@@@@+.",
".+@@@@@@@@@@@@@@@@@@@@@@+.",
".+@@@@@@@@@@@@@@@@@@@@@@+.",
".+@@@@@@@@@@@@@@@@@@@@@@+.",
".+@@@@@@@@@@@@@.@@@@@@@@+.",
".+@@@@@@@@@@@@.@@@@@@@@@+.",
".+@@@@@@@@@@@.@@@@@@@@@@+.",
".+@@@@@@@@@@.@@@@@@@@@@@+.",
".+@@@@@@@@@.@@@@@@@@@@@@+.",
".+@@@@@@@@.@@@@@@@@@@@@@+.",
".+@@@@@@@.@@@@@@@@@@@@@@+.",
".+@@@@@@.@@@@@@@@@@@@@@@+.",
".+@@@@..@@@@@@@@@@@.@@@@+.",
"........@@@@@@@@@@........",
".+@@@@.@@@@@@@@@@@@.@@@@+.",
".+@@@@@@@@@@@@@@@@@@@@@@+.",
".+@@@@@@@@@@@@@@@@@@@@@@+.",
".+@@@@@@@@@@@@@@@@@@@@@@+.",
".+@@@@@@@@@@@@@@@@@@@@@@+.",
".+@@@@@@@@@@@@@@@@@@@@@@+.",
".+@@@@@@@@@@@@@@@@@@@@@@+.",
".++++++++++++++++++++++++.",
".........................."};
