/* XPM */
static char * redball_xpm[] = {
"14 14 43 1",
" 	c None",
".	c #FFA5EE",
"+	c #FF8BD5",
"@	c #FF317A",
"#	c #FF2162",
"$	c #FF0F59",
"%	c #FF0F51",
"&	c #FF0751",
"*	c #FD0051",
"=	c #FD0049",
"-	c #EE0041",
";	c #E60041",
">	c #DE0041",
",	c #BFBFBF",
"'	c #D60841",
")	c #D60041",
"!	c #CD6283",
"~	c #CD627A",
"{	c #CE426A",
"]	c #CE1049",
"^	c #CE0038",
"/	c #C5BCBC",
"(	c #C57A93",
"_	c #C57A8B",
":	c #C60038",
"<	c #BC0038",
"[	c #BC0030",
"}	c #B40030",
"|	c #AC0030",
"1	c #9C4A62",
"2	c #9C0028",
"3	c #940028",
"4	c #8B3049",
"5	c #841030",
"6	c #840028",
"7	c #720F30",
"8	c #720020",
"9	c #6A0020",
"0	c #620017",
"a	c #5A0020",
"b	c #5A0017",
"c	c #4A0017",
"d	c #4A000F",
"              ",
"              ",
"    _{]]{_    ",
"   ~)**=-:~   ",
"  (^*$@&;:2(  ",
"  {*&+.%)<35  ",
"  ]=&@#'<26b  ",
"  ]>;>^}260b  ",
"  {<<[|26ac7  ",
"  (323680dc1  ",
"   !99bccc4   ",
"    (7bb71    ",
"              ",
"              "};
