/* XPM */
static char *Temperatura[] = {
/* width height ncolors chars_per_pixel */
"16 16 4 1",
/* colors */
"  c black",
". c #808080",
"X c white",
"o c None",
/* pixels */
"XXXXXXXX XXXXXXX",
"XX XXXX   XXXXXX",
"X X XXX X XXXXXX",
"XX XXX  X  XXXXX",
"XXXXXXX X XXXXXX",
"XXXXXX  .  XXXXX",
"XXXXXXX . XXXXXX",
"XXXXXX  .  XXXXX",
"XXXXXXX . XXXXXX",
"XXXXXX  .  XXXXX",
"XXXXX  ...  XXXX",
"XXXXX ..... XXXX",
"XXXXX ..... XXXX",
"XXXXX ..... XXXX",
"XXXXX  ...  XXXX",
"XXXXXX     XXXXX"
};
