/* XPM */
static char * translate_32_xpm[] = {
"32 32 233 2",
"  	c None",
". 	c #A1C4FF",
"+ 	c #E1DECE",
"@ 	c #3078F0",
"# 	c #F1F0E5",
"$ 	c #EFEDE1",
"% 	c #F0EEE2",
"& 	c #A1C3FF",
"* 	c #296FE7",
"= 	c #F2F2F2",
"- 	c #E3E0D1",
"; 	c #5E5E5E",
"> 	c #E5E2D3",
", 	c #5C5C5C",
"' 	c #3078F0",
") 	c #3B82F7",
"! 	c #E0DDCE",
"~ 	c #3A81F6",
"{ 	c #E6EBF2",
"] 	c #367EF4",
"^ 	c #E6E3D4",
"/ 	c #3D83F8",
"( 	c #E2DFD1",
"_ 	c #347CF3",
": 	c #3E84F9",
"< 	c #DEDBCC",
"[ 	c #E1DECF",
"} 	c #DFDCCD",
"| 	c #387FF5",
"1 	c #E9E7D9",
"2 	c #4087FA",
"3 	c #357DF3",
"4 	c #3F86FA",
"5 	c #EAE8DA",
"6 	c #DAE3F2",
"7 	c #EDECDF",
"8 	c #DDDACC",
"9 	c #E2DFD0",
"0 	c #5D5D5D",
"a 	c #3179F1",
"b 	c #A1C3FF",
"c 	c #E4E1D2",
"d 	c #E7E4D6",
"e 	c #E1DED0",
"f 	c #2F77EF",
"g 	c #2E76EE",
"h 	c #3279F1",
"i 	c #3C83F8",
"j 	c #3A80F6",
"k 	c #E8E5D7",
"l 	c #2D75ED",
"m 	c #4187FB",
"n 	c #EAE8DB",
"o 	c #E2E0D1",
"p 	c #B2B0A7",
"q 	c #F0EFE4",
"r 	c #DBD9CA",
"s 	c #ECEBDE",
"t 	c #EBEADC",
"u 	c #E0DECF",
"v 	c #6D6D6B",
"w 	c #357DF4",
"x 	c #337AF2",
"y 	c #DAD7C9",
"z 	c #DBD8CA",
"A 	c #3C83F7",
"B 	c #337BF2",
"C 	c #DCDACB",
"D 	c #EEECE0",
"E 	c #EBE9DB",
"F 	c #367FF4",
"G 	c #EEEDE1",
"H 	c #EDEBDF",
"I 	c #397FF5",
"J 	c #4388FB",
"K 	c #377FF5",
"L 	c #347DF2",
"M 	c #2F76EE",
"N 	c #C3D5F3",
"O 	c #A09E97",
"P 	c #448AFC",
"Q 	c #EEECE1",
"R 	c #DDDACB",
"S 	c #D9D7C9",
"T 	c #ECEADD",
"U 	c #E3E0D2",
"V 	c #3B81F7",
"W 	c #3B83F7",
"X 	c #E8E6D8",
"Y 	c #6E6E6C",
"Z 	c #656564",
"` 	c #337CF2",
" .	c #E4E1D3",
"..	c #D8D6C8",
"+.	c #DDDBCC",
"@.	c #E7E5D6",
"#.	c #EFEEE3",
"$.	c #DAD8CA",
"%.	c #EEEDE2",
"&.	c #3179F0",
"*.	c #4288FB",
"=.	c #EBE9DC",
"-.	c #E7E4D5",
";.	c #A1A098",
">.	c #347DF3",
",.	c #E0DDCF",
"'.	c #DEDCCD",
").	c #3E85F9",
"!.	c #377EF5",
"~.	c #327AF2",
"{.	c #3F85F9",
"].	c #2E75ED",
"^.	c #E6E3D5",
"/.	c #3C82F7",
"(.	c #3077EF",
"_.	c #3D84F8",
":.	c #397FF6",
"<.	c #2D74EC",
"[.	c #2C73EB",
"}.	c #A1C4FF",
"|.	c #5F5F5F",
"1.	c #2A70E8",
"2.	c #327AF1",
"3.	c #EAE9DB",
"4.	c #EFEDE2",
"5.	c #97968F",
"6.	c #327BF1",
"7.	c #ECEADE",
"8.	c #EBEADD",
"9.	c #EAE7DA",
"0.	c #767572",
"a.	c #2B72EA",
"b.	c #E9E6D9",
"c.	c #777673",
"d.	c #DEDBCD",
"e.	c #3F85FA",
"f.	c #E2DFCF",
"g.	c #E5E2D4",
"h.	c #908F89",
"i.	c #666564",
"j.	c #E7EBF2",
"k.	c #A2A099",
"l.	c #8F8E88",
"m.	c #DBD8CB",
"n.	c #E8E5D8",
"o.	c #DFDDCE",
"p.	c #D7D9D2",
"q.	c #5B95F0",
"r.	c #5993EE",
"s.	c #2A71E9",
"t.	c #CAC7BB",
"u.	c #D6D8D1",
"v.	c #C2CDD6",
"w.	c #5290F3",
"x.	c #DFDDCD",
"y.	c #3881F5",
"z.	c #D4D6CF",
"A.	c #BCC8D2",
"B.	c #C1BFB4",
"C.	c #327BF2",
"D.	c #C3D5F2",
"E.	c #B6C6D8",
"F.	c #4689F5",
"G.	c #6E6D6B",
"H.	c #E6E4D5",
"I.	c #8C9091",
"J.	c #3C80EE",
"K.	c #AFBFD2",
"L.	c #518EF5",
"M.	c #4D8CF4",
"N.	c #367DF4",
"O.	c #B4B2A9",
"P.	c #C4D6F3",
"Q.	c #377EF4",
"R.	c #A1C0F3",
"S.	c #ACC6F3",
"T.	c #ABC6F2",
"U.	c #9EBEF2",
"V.	c #D7D5C8",
"W.	c #285FBB",
"X.	c #2B69CF",
"Y.	c #327AF0",
"Z.	c #3079EF",
"`.	c #5993F3",
" +	c #5892F3",
".+	c #E9E6D8",
"++	c #255DB9",
"@+	c #245DB9",
"#+	c #2867CE",
"$+	c #2F77ED",
"%+	c #4C8CF7",
"&+	c #7DAAF3",
"*+	c #757572",
"=+	c #79A6F1",
"-+	c #235BB8",
";+	c #235AB8",
">+	c #225AB7",
",+	c #2563CA",
"'+	c #9AC0FE",
")+	c #4B8BF7",
"!+	c #92928C",
"~+	c #347CF2",
"{+	c #327BF0",
"]+	c #587BB4",
"^+	c #94BBFE",
"/+	c #3C81F4",
"(+	c #4C8BF3",
"_+	c #4887F0",
":+	c #7FABF5",
"<+	c #7CA9F3",
"[+	c #8DB6FD",
"}+	c #3B80F4",
"|+	c #9FBEF2",
"1+	c #9DBCF1",
"2+	c #4A8AEE",
"3+	c #8CB6FD",
"4+	c #3F83F2",
"5+	c #86AEF1",
"6+	c #85ADF1",
"7+	c #E6EAF2",
"8+	c #F1F0E5",
"9+	c #8CB5FC",
"0+	c #397FF2",
"a+	c #4388FC",
"b+	c #99BEFE",
"c+	c #4687F3",
"d+	c #4B8AF2",
"e+	c #4586F3",
"f+	c #2F6DD2",
"g+	c #C2D4F2",
"h+	c #3A7DEE",
"i+	c #3981F5",
"j+	c #7E7D79",
"                                                                ",
"  # 8+q #.G 7 7.=.n 1 X d ^.> > c - f.+                         ",
"  8+q #.%.D H T E ; ; k d ^ >  .c - [ !                         ",
"  q #.4.Q 7 s t 5 ; ; d ^.> > c U ( [ x.                        ",
"  #.%.Q |.|.|.|.; ; ; 0 0 0 , , - 9 ! }                         ",
"  G D 7 |.|.|.; ; ; 0 0 0 0 , , ( [ ! <                         ",
"  7 H s 8.=.5 1 X @.H.8 i.v c - 9 u } +.                        ",
"  s T t 3.5 !+; O.-.^ p 0 O - ( e ! < C                         ",
"  t E n 5 1 V.; Y ^ > Y Z z o e ! } +.r                         ",
"  n 9.1 .+k @.k.0 ;.;., O - 9 u } < C $.                        ",
"  1 b.n.k d ^.^ c.0 0 *+- 9 e ! d.R z S                         ",
"  n.k d -.^.g.8 h., , l.y e ,.'.8 r y ..                        ",
"  d d ^.^ > p Z , v v , ]+P J m 4 )._.i ) ~ I !.N.>.` C.a ' @   ",
"  ^.^ > p G., , 5.$.S I.P a+*.2 4 : / A ) ~ | Q.w _ ` 6.a ' '   ",
"  > > > 0., j+t.o 9 e u.J *.m 2 {.: / /.) j | ] w _ B 2.a ' '   ",
"  >  .c m.B.- ( e u o.'.m 2 2 e.: _.i ) ~ :.K ] 3 _ B h &.' (.  ",
"  c c U - ( 9 e ,.} < 8 4 4 {.: _./ /.V j.= { ] 3 ~+x a ' ' f   ",
"  - o ( 9 p.q.r.z.< R r ).: : _./ A ) :+= = = <+_ B 2.a ' ' f   ",
"  9 [ [ v.w.W y.2+A.z y _./ / i /.) j P.= N = D._ x h a ' ' f   ",
"  + ! E.F.W i+F L J.K...i A /.) V j L.= { M.{ = d+~.a ' ' f f   ",
"          f+F L {+      ) ) ) ~ j :.R.= S.w T.= U.h a ' ' f M   ",
"          W.X.Y.Z.      ~ ~ j :.I | { = `.3  += { a ' ' (.f g   ",
"          ++@+#+$+      %+| | K !.&+= 6 >._ x 6 = =+' ' f M g   ",
"          -+;+>+,+      '+)+] ] ] N = = = = = = = g+' f f g ].  ",
"          . }.}.}.}.}.}.}.^+/+3 (+= = g+g+g+g+g+= = _+f g ].<.  ",
"            . }.}.}.}.b b b [+}+|+= 6 ~.h a ' ' 6 = 1+M ].l <.  ",
"              . b b b b b b 3+4+{ = 5+a a ' ' ' 6+= 7+h+l <.[.  ",
"                & b b b b 9+0+h a a a ' ' ' ' f f M g l <.[.a.  ",
"                        b+c+a &.' ' ' ' ' (.f f g ].l <.[.a.s.  ",
"                        e+' ' ' ' ' ' f f f M g ].l <.[.a.s.1.  ",
"                        @ ' ' (.f f f f M g g ].<.<.[.a.s.1.*   ",
"                                                                "};
