/* XPM */
static char* Xpmtree_bat1[] = {
"16 16 2 1",
"  c #000000",
"! c #FFFFFF",
"!!!!!!!!!!!!!!!!",
"!!!!!!! !!!! !!!",
"!!!!!!! !!!   !!",
"!!!!!!! !!!! !!!",
"!!!!!!! !!!!!!!!",
"!!           !!!",
"!!           !!!",
"!!!!!!!!!!!!!!!!",
"!!!!       !!!!!",
"!!!!       !!!!!",
"!!!!!!! !!!!!!!!",
"!!!!!!! !!!!!!!!",
"!!!!!!! !!!!!!!!",
"!!!!!!! !!!!!!!!",
"!!!!!!! !!!!!!!!",
"!!!!!!!!!!!!!!!!"};
