/* XPM */
static char* Xpmtree_aca1[] = {
"16 16 2 1",
"  c #000000",
"! c #FFFFFF",
"!!!   !!!!!!!!!!",
"!!!   !!!!!!!!!!",
"!!     !!!!!!!!!",
"!!     !!!!!!!!!",
"!  !!!  !!!!!!!!",
"!  !!!  !!!!!!!!",
"  !!!!! !!!!!!!!",
"  !!!!! !!!!!!!!",
" !!!!!!  !!!!!! ",
"!!!!!!!! !!!!!  ",
"!!!!!!!! !!!!!  ",
"!!!!!!!!  !!!  !",
"!!!!!!!!  !!!  !",
"!!!!!!!!!     !!",
"!!!!!!!!!     !!",
"!!!!!!!!!!   !!!"};
