/* XPM */
static char * bd_pru5_xpm[] = {
"16 16 2 1",
" 	c #FFFFFF",
".	c #000000",
"                ",
"    ..          ",
"    ..          ",
" ........     . ",
" ........    .. ",
"            ..  ",
"  .    .   ..   ",
".. .  . ....  ..",
".. .  . ...   ..",
"  .    .        ",
"                ",
"                ",
"                ",
"                ",
"                ",
"                "};
