/* XPM */
static char * tree_sis2_xpm[] = {
"16 16 4 1",
" 	c None",
".	c #F7FBF7",
"+	c #5A5A5A",
"@	c #000000",
".+++............",
"+...++++++......",
"+..++@.@@@++....",
"+.+@@@@.@@@@+...",
".+@@@@@@...@@+..",
".+@@@@@@...@@+..",
"+@@@@@@@...@@@+.",
"+@@@@@@@@@@.@@+.",
"+@@@@@@@@@@@.@+.",
".+@@@@@@@@@@.+..",
".+@@@@@@@@@@@...",
"..+@@@@@@@@@++..",
"...++@@@@@++.+..",
".....+++++...+..",
".........++++...",
"................"};
