/* XPM */
static char *Ventiladores[] = {
/* width height ncolors chars_per_pixel */
"16 16 4 1",
/* colors */
"  c black",
". c #808080",
"X c white",
"o c None",
/* pixels */
"                ",
"     XXX ..     ",
"    XXXX ...    ",
"   XXXXX ...    ",
"  XXXXXX .. XX  ",
"   XXXX  . XXXX ",
"  .  X .. XXXXX ",
" .... .... XXXX ",
" .... .... XXXX ",
"  .  X .. XXXXX ",
"   XXXX  . XXXX ",
"  XXXXXX .. XX  ",
"   XXXXX ...    ",
"    XXXX ...    ",
"     XXX ..     ",
"                "
};
