/* XPM */
static char * zigor_p_xpm[] = {
"100 28 33 1",
" 	c None",
".	c #88A4B3",
"+	c #487288",
"@	c #EBF7FB",
"#	c #003051",
"$	c #B7C7D0",
"%	c #6EC3E5",
"&	c #FAFBFC",
"*	c #7D9BAB",
"=	c #D9E3E7",
"-	c #F5FCFD",
";	c #104765",
">	c #A1B7C3",
",	c #C5D3D9",
"'	c #F0F3F5",
")	c #0592CB",
"!	c #54B8DD",
"~	c #92D3EB",
"{	c #225470",
"]	c #6A8C9E",
"^	c #E1E9ED",
"/	c #BAE4F3",
"(	c #35ACDB",
"_	c #D1DBE1",
":	c #1FA4D7",
"<	c #EAEEF1",
"[	c #39647D",
"}	c #F4F6F8",
"|	c #5B7F93",
"1	c #AADCED",
"2	c #0872A1",
"3	c #033C5B",
"4	c #FFFFFF",
"                                                            %)))%                                   ",
" ^+|****************> /%%%%%%%%%%%%%%%%%%%%%%%%%%%%%%%%~   ~(%%%:!/       /%%%%%%%%%%%%%%%%%%%%%%%%~",
" >##################[ /%%%%%%%%%%%%%%%%%%%%%%%%%%%%%%%%~  ^)/    !)1      /%%%%%%%%%%%%%%%%%%%%%%%%~",
" *##{>$$$$$$$$[#333;_                                     ~(   .+;{){;[|.                           ",
" *#|         ^;333#>     >$$$$$             $>>$=         %% ,+#{]<~).[3#+_       $$$$$$$$^         ",
" ;#=         +#33#[      *;33#+           ]3;**+3+].      %%,3#+    !: .##;       +#333;33;;=       ",
" ;+         >#33#{,       $3#+           |3|_   $3#*      %![#{=     (% ]3#+<      $33* _*;#+=      ",
"           <;333#>         ;#.          +#.      $#*      /2#3$      /)% [##>       ;;<   $3#*      ",
"           |#33#+          ;#*         >#;<       *]      /;#;       ~))%]##+       ;;     ;#*      ",
"          =3333{           ;#*         *#*        ,>      $3#+       ~))~$#33       ;;    _;#.      ",
"          +#33#.           ;#*         ;#*                $3#+        ~(! ;#;       ;;^  ${#+       ",
"         >333#+            ;#*         ;#*     _$$$$$     >3#+         1)/;#;       ;3{{;33*        ",
"        $#3333=            ;#*         3#*     $;33#+     .##+         @:~{#;       ;;^ >##|        ",
"       =3#333>             ;#*         +#*       ]#;      $3#[          %!{#;       ;;   ]##>       ",
"       |#33#[              ;#*         .#;=      .#;      ,333=         /23#*       ;;    {#;_      ",
"      .#3333$              ;#.         $##|      |#3       +##+          2#3_       ;;<   $##+      ",
"      {#33#>              ,3#+          >3#|_  $+;*.       =33#>        $23>       $3#*    >33|_    ",
"     +#333;              >;33#+>         $;#3;;3[_          ]##3$      $32]       .#333+,   ]33;.   ",
"    $#3333,              ,$$$$$,           $$$$_             >;##+*$$*|#3)@       =$$$$>=           ",
"   =[#33#*             @@       @@@@@@@@@@      @@@@@@@@@     <]+;3{;3[])!    @@@@       @@@@   @@@ ",
"   |#33#+             ~::::::::::::::::::::::::::::::::::~       %)!^  /)/    (::::::::::::::::::::%",
"  $3333{^          ${* @@@@@@@@@@@@@@@@@@@@@@@@@@@@@@@@@@         /((!!:~     @@@@@@@@@@@@@@@@@@@@@ ",
"  ;#33#]          $3#$                                     $_  ]$   ~%%/                            ",
" .#33#+        $*[3#]      ^<         .]        <   ^,  ^  ., <.   <            <           ,       ",
"$33333;******+33###|      _]| $[{ .[| +{{=_[[,>{+__|[. .|><{_^{+,,{[|          ++         |];       ",
";333333#######333#+       +^  []{,$#< +]{,*.|* ;^ +<[^$[  <;<>|** +,;= >       |[    _   <|$+<  <$  ",
"$$$$$$$$$$$$$$$$$$        ]+* ]{| $+  +[* >[|= +  |+{*_{| ,;$=[|, {^{, {>     =+[   _{   =[|+,  ${  ",
"                           ^         ^+,                <             ,*<      <                    "};
